<?xml version="1.0" encoding="UTF-8" standalone="no"?>
<svg
   xmlns:dc="http://purl.org/dc/elements/1.1/"
   xmlns:cc="http://creativecommons.org/ns#"
   xmlns:rdf="http://www.w3.org/1999/02/22-rdf-syntax-ns#"
   xmlns:svg="http://www.w3.org/2000/svg"
   xmlns="http://www.w3.org/2000/svg"
   xmlns:xlink="http://www.w3.org/1999/xlink"
   xmlns:sodipodi="http://sodipodi.sourceforge.net/DTD/sodipodi-0.dtd"
   xmlns:inkscape="http://www.inkscape.org/namespaces/inkscape"
   width="300"
   height="201"
   viewBox="0 0 79.374999 53.181249"
   version="1.1"
   id="svg8"
   inkscape:version="1.0 (1.0+r73+1)"
   sodipodi:docname="Youtube.svg"
   inkscape:export-filename="/home/ipulmisaja/Pictures/Video.png"
   inkscape:export-xdpi="96"
   inkscape:export-ydpi="96">
  <defs
     id="defs2">
    <linearGradient
       id="linearGradient1109"
       inkscape:collect="always">
      <stop
         id="stop1105"
         offset="0"
         style="stop-color:#ed213a;stop-opacity:1" />
      <stop
         id="stop1107"
         offset="1"
         style="stop-color:#93291e;stop-opacity:1" />
    </linearGradient>
    <linearGradient
       inkscape:collect="always"
       xlink:href="#linearGradient1109"
       id="linearGradient6282"
       x1="0"
       y1="26.590624"
       x2="79.375"
       y2="26.590624"
       gradientUnits="userSpaceOnUse" />
    <filter
       inkscape:collect="always"
       style="color-interpolation-filters:sRGB"
       id="filter6348"
       x="-4.007999e-06"
       width="1.000008"
       y="-5.9820883e-06"
       height="1.000012">
      <feGaussianBlur
         inkscape:collect="always"
         stdDeviation="0.00013255622"
         id="feGaussianBlur6350" />
    </filter>
    <linearGradient
       gradientUnits="userSpaceOnUse"
       y2="12"
       x2="22"
       y1="12"
       x1="2"
       id="linearGradient1199"
       xlink:href="#linearGradient1109"
       inkscape:collect="always" />
    <linearGradient
       y2="12"
       x2="22"
       y1="12"
       x1="2"
       gradientUnits="userSpaceOnUse"
       id="linearGradient1207"
       xlink:href="#linearGradient1109"
       inkscape:collect="always" />
    <linearGradient
       y2="12"
       x2="22"
       y1="12"
       x1="2"
       gradientUnits="userSpaceOnUse"
       id="linearGradient1209"
       xlink:href="#linearGradient1109"
       inkscape:collect="always" />
  </defs>
  <sodipodi:namedview
     id="base"
     pagecolor="#ffffff"
     bordercolor="#666666"
     borderopacity="1.0"
     inkscape:pageopacity="0.0"
     inkscape:pageshadow="2"
     inkscape:zoom="1.979899"
     inkscape:cx="261.65136"
     inkscape:cy="110.00033"
     inkscape:document-units="px"
     inkscape:current-layer="layer1"
     inkscape:document-rotation="0"
     showgrid="false"
     units="px"
     inkscape:window-width="1918"
     inkscape:window-height="978"
     inkscape:window-x="0"
     inkscape:window-y="28"
     inkscape:window-maximized="0" />
  <metadata
     id="metadata5">
    <rdf:RDF>
      <cc:Work
         rdf:about="">
        <dc:format>image/svg+xml</dc:format>
        <dc:type
           rdf:resource="http://purl.org/dc/dcmitype/StillImage" />
        <dc:title></dc:title>
      </cc:Work>
    </rdf:RDF>
  </metadata>
  <g
     inkscape:label="Layer 1"
     inkscape:groupmode="layer"
     id="layer1">
    <rect
       style="fill:url(#linearGradient6282);stroke-width:0.486379;fill-opacity:1;filter:url(#filter6348)"
       id="rect10"
       width="79.375"
       height="53.181248"
       x="0"
       y="0" />
    <text
       xml:space="preserve"
       style="font-style:normal;font-weight:normal;font-size:10.5833px;line-height:1.25;font-family:sans-serif;fill:#000000;fill-opacity:1;stroke:none;stroke-width:0.264583"
       x="24.685278"
       y="44.855751"
       id="text843"><tspan
         sodipodi:role="line"
         id="tspan841"
         x="24.685278"
         y="44.855751"
         style="stroke-width:0.264583" /></text>
    <text
       xml:space="preserve"
       style="font-style:normal;font-weight:normal;font-size:5.29167px;line-height:1.25;font-family:sans-serif;fill:#000000;fill-opacity:1;stroke:none;stroke-width:0.264583"
       x="25.791599"
       y="35.895401"
       id="text839"><tspan
         sodipodi:role="line"
         id="tspan837"
         x="25.791599"
         y="35.895401"
         style="font-style:normal;font-variant:normal;font-weight:normal;font-stretch:normal;font-size:5.29167px;font-family:'Noto Sans';-inkscape-font-specification:'Noto Sans';fill:#ffffff;stroke-width:0.264583">Arsip Video</tspan></text>
    <text
       xml:space="preserve"
       style="font-style:normal;font-weight:normal;font-size:2.82222px;line-height:1.25;font-family:sans-serif;fill:#000000;fill-opacity:1;stroke:none;stroke-width:0.264583"
       x="39.796154"
       y="40.911278"
       id="text965"><tspan
         id="tspan1127"
         sodipodi:role="line"
         x="39.796154"
         y="40.911278"
         style="font-style:normal;font-variant:normal;font-weight:normal;font-stretch:normal;font-size:2.82222px;font-family:'Noto Sans';-inkscape-font-specification:'Noto Sans';text-align:center;text-anchor:middle;fill:#ffffff;stroke-width:0.264583">Arsip dokumentasi mengenai teknologi</tspan><tspan
         id="tspan1131"
         sodipodi:role="line"
         x="39.796154"
         y="44.439053"
         style="font-style:normal;font-variant:normal;font-weight:normal;font-stretch:normal;font-size:2.82222px;font-family:'Noto Sans';-inkscape-font-specification:'Noto Sans';text-align:center;text-anchor:middle;fill:#ffffff;stroke-width:0.264583">informasi dalam format video.</tspan></text>
    <g
       id="g1205">
      <circle
         r="9.260417"
         cy="19.434885"
         cx="39.6875"
         id="path835"
         style="fill:#ffffff;fill-opacity:1;stroke-width:0.379693" />
      <g
         id="g1191"
         transform="matrix(0.56898241,0,0,0.56898241,32.859711,12.607096)"
         style="fill:url(#linearGradient1199);fill-opacity:1">
        <path
           id="path1177"
           d="m 4,3 h 16 a 2,2 0 0 1 2,2 v 14 a 2,2 0 0 1 -2,2 H 4 A 2,2 0 0 1 2,19 V 5 C 2,3.9 2.9,3 4,3 Z M 4,5 V 7 H 6 V 5 Z m 0,4 v 2 H 6 V 9 Z m 0,4 v 2 h 2 v -2 z m 0,4 v 2 H 6 V 17 Z M 18,5 v 2 h 2 V 5 Z m 0,4 v 2 h 2 V 9 Z m 0,4 v 2 h 2 v -2 z m 0,4 v 2 h 2 v -2 z"
           class="primary"
           style="fill:url(#linearGradient1207);fill-opacity:1" />
        <path
           id="path1179"
           d="m 9,5 h 6 a 1,1 0 0 1 1,1 v 4 a 1,1 0 0 1 -1,1 H 9 A 1,1 0 0 1 8,10 V 6 A 1,1 0 0 1 9,5 Z m 0,8 h 6 a 1,1 0 0 1 1,1 v 4 a 1,1 0 0 1 -1,1 H 9 A 1,1 0 0 1 8,18 v -4 a 1,1 0 0 1 1,-1 z"
           class="secondary"
           style="fill:url(#linearGradient1209);fill-opacity:1" />
      </g>
    </g>
  </g>
</svg>
